<?xml version="1.0" encoding="utf-8"?>
<!-- Generator: Adobe Illustrator 24.0.1, SVG Export Plug-In . SVG Version: 6.00 Build 0)  -->
<svg version="1.1" id="mufid-logo" xmlns="http://www.w3.org/2000/svg" xmlns:xlink="http://www.w3.org/1999/xlink" x="0px" y="0px"
	 viewBox="0 0 213.4 72" style="enable-background:new 0 0 213.4 72;" xml:space="preserve">
<style type="text/css">
	.st0{fill-rule:evenodd;clip-rule:evenodd;fill:#FD0001;}
	.st1{fill-rule:evenodd;clip-rule:evenodd;}
</style>
<g id="Group_50" transform="translate(0.771)">
	<path id="Path_6" class="st0" d="M113.6,40.5L113.6,40.5c0.5,0,4.9-4.9,4.7-7.5l-0.1-0.8l0.5-0.5V19.2L108,21.9v27.8l-1.1,0.7
		l-1.1,0.6l-1.7,0.9l-1.9,0.8l-1.7,0.5c-0.5,0.1-1.1,0.2-1.7,0.2c-1,0-2-0.3-2.7-1c-0.9-0.9-1.3-2.1-1.2-3.3V23.6
		c0-5.4-13.9-0.3-17.4,2.4c3.8,0.1,6.8,3.1,6.8,6.9c0,0.2,0,0.3,0,0.5c0,0.2,0,0.4,0,0.6v17.4c0.2,1.8,0.9,3.6,2.1,5
		c1.3,1.4,3.2,2.1,5.7,2.1c2.3-0.1,4.6-0.6,6.7-1.5c3.2-1.3,6.3-3,9.2-5v1.8c0,0.7,0.3,1.5,0.6,2.1c0.3,0.5,1.1,0.8,2.4,0.8h13.5
		C121.9,50.7,118.2,45.2,113.6,40.5z"/>
	<path id="Path_7" class="st0" d="M157,1.4c-1.7-0.8-3.5-1.2-5.4-1.2h-3.2L147,0.3c-5.4,0.9-9.2,2.8-11.6,5.7
		c-2.2,2.7-3.7,5.9-4.2,9.4c-0.1,0.6-0.2,1.2-0.2,1.7v1.7c0,1-0.1,2-0.5,2.9c-0.3,0.8-1,1.3-1.8,1.2h-3.5c-0.6,0-1.2,0.2-1.8,0.5
		c-0.3,0.1-0.5,0.4-0.5,0.8c0,0.3,0.2,0.7,0.5,0.8c0.4,0.2,0.8,0.3,1.2,0.3h6.5v6.6l0.3,0.4l-0.1,0.8c-0.2,2.6,4.5,7.5,4.7,7.5l0,0
		c-3.5,3.4-9.4,11.5-10.7,16.3h23.7c-3.1,0-5.8-1.8-7.1-4.6c-0.5-0.9-0.7-2-0.7-3.1V25.3h7.2c0.5,0,1-0.2,1.4-0.5
		c0.2-0.2,0.3-0.4,0.3-0.7c0-0.3-0.2-0.6-0.5-0.8c-0.4-0.3-0.8-0.4-1.3-0.4h-7.2V11.2c0-1.2,0.1-2.3,0.4-3.5
		c0.2-0.9,0.6-1.8,1.2-2.6c0.6-1.2,1.7-2.2,3-2.6l0.4-0.1l0.5-0.1c0.7,0,1.4,0.3,2,0.8c0.6,0.6,1.1,1.3,1.3,2.1
		c0.3,1.3,1,2.5,1.9,3.5c0.7,0.7,1.6,1.1,2.6,1.4l0.4,0.1h0.4c1.3,0,2.5-0.5,3.4-1.4c0.9-0.8,1.4-2,1.4-3.2V5.2
		C159.7,3.5,158.6,2.1,157,1.4z"/>
	<path id="Path_8" class="st0" d="M126.6,40.3c0-1-0.8-1.8-1.8-1.8c-1,0-1.8,0.8-1.8,1.8c0,0,0,0,0,0c0,0.8,0.5,1.4,1.2,1.7
		l0.6,14.7l0.6-14.7C126.2,41.8,126.7,41.1,126.6,40.3z"/>
	<path id="Path_9" class="st0" d="M75,49.1l-18.1-49l-8.4,18.6l10.3,27.8c2.4,6.5-0.9,7.9-6.7,8.8v2.1h29.2v-2.3
		C76.8,54.6,76.4,53,75,49.1z"/>
	<path id="Path_10" class="st0" d="M21.7,0.4C15.9-0.7,10.5,0.7,5.5,4.1c3.3,0.8,7.4,1.5,12.7,15.4c0,0,13.4,36.4,13.4,36.4L40,37.3
		L28.3,5.6C27.2,2.8,24.7,0.8,21.7,0.4z"/>
	<path id="Path_11" class="st0" d="M7.5,32.2C6.2,35.3,0,43.5,0,50.5c0,3.8,3,6.8,6.8,6.9l0,0.1l0-0.1c0,0,0.1,0,0.1,0
		c3.8,0,6.9-3.1,6.9-6.9c0-0.9-0.2-1.8-0.5-2.6C12,44.2,6.5,36.8,7.5,32.2z"/>
</g>
<path id="Path_12" class="st1" d="M167.5,46c0,0.7,0,1.3,0.1,2c0,0.1,0,0.1,0,0.2c0,4.1,2.9,7.6,6.9,8.4c-0.3,0.1-0.6,0.1-1.1,0.2
	h-23.7c-0.2,0-0.4,0-0.6-0.1c4-0.5,7.1-3.7,7.5-7.7c0.1-0.6,0.2-1.2,0.2-1.8V27l10.7-2.7L167.5,46L167.5,46z M197.7,18.5L197.7,18.5
	l0,8.6c-1.1-1.6-2.6-3-4.3-4c-1.9-1-4-1.4-6.1-1.4h-0.3c-4.8-0.2-9.3,1.9-12.2,5.7c-1.5,1.8-2.7,3.8-3.6,6c-0.8,2-1.2,4.2-1.2,6.4
	v1.1c0,4.3,1.5,8.5,4.3,11.8c2.9,3.5,7.3,5.2,13.3,5.2h1.4l1.4-0.2c1.5-0.3,2.9-0.8,4.1-1.7c1.4-1,2.5-2.4,3.2-3.9v1.8l-0.2,0.8v0.7
	c0,0.4,0.1,0.9,0.5,1.2c0.5,0.2,1,0.3,1.5,0.3h13.9c-3.3-1-5.6-4-5.6-7.5c0,0,0-0.1,0-0.1s0-0.1,0-0.1c0-0.2,0-0.3,0-0.5
	c0-0.2,0-0.5,0-0.7V2.8c0-5.1-13.3-0.3-16.6,2.3c3.6,0.1,6.4,4.7,6.4,6.6s0,0.3,0,0.4c0,0.2,0,0.4,0,0.6L197.7,18.5L197.7,18.5z
	 M162.6,9.8c1.6-0.1,3.2,0.6,4.3,1.8c1.1,1,1.8,2.5,1.8,4v0.6c0,1.6-0.6,3.1-1.7,4.3c-1.1,1.3-2.9,1.9-5.4,1.9
	c-1.7,0.1-3.4-0.6-4.6-1.9c-1-1.1-1.6-2.6-1.6-4.1c0-1.6,0.6-3.2,1.7-4.4c1.3-1.4,3.2-2.2,5.1-2.1L162.6,9.8z M183.1,29
	c1.5-3.3,3.6-4.9,6.3-4.9c3-0.1,5.8,1.7,6.9,4.5c1.5,3.1,2.3,6.6,2.2,10v1.4c0,1.9-0.3,3.7-0.8,5.5c-0.5,1.8-1.2,3.6-2.1,5.3
	c-1.7,3.2-4,4.8-6.6,4.8h-0.2c-2.9,0-4.9-2-6.2-5c-1.3-3.2-2-6.6-1.9-10v-0.8c0-1.9,0.2-3.8,0.6-5.6C181.7,32.3,182.3,30.6,183.1,29
	L183.1,29z"/>
<g>
	<path d="M7.2,72H6.8l-3.7-8.4v7.7l1.3,0.2V72H1v-0.5l1.3-0.2v-8.5L1,62.6v-0.5h3.9l2.8,6.5l2.9-6.5h4v0.5l-1.3,0.2v8.5l1.3,0.2V72
		H9.7v-0.5l1.3-0.2v-7.7L7.2,72z"/>
	<path d="M20.3,71.4l-0.5,0.3c-0.7,0.4-1.3,0.5-1.9,0.5c-1.3,0-1.9-0.7-1.9-2.1v-4.4l-0.7-0.2V65h2.8v4.8c0,0.4,0.1,0.7,0.3,1
		c0.2,0.2,0.4,0.3,0.8,0.3c0.4,0,0.8-0.1,1.1-0.3v-5.2l-0.6-0.2V65h2.8v6.3l0.7,0.2V72h-2.7L20.3,71.4z"/>
	<path d="M24.6,65.8h-1.1v-0.5l1.1-0.3v-0.7c0-0.9,0.3-1.7,0.8-2.2c0.5-0.5,1.2-0.8,2.1-0.8c0.3,0,1,0.1,1.9,0.2H31v9.9l0.8,0.2V72
		h-3.7v-0.5l0.8-0.2v-8.9c-0.4-0.2-0.8-0.3-1.2-0.3c-0.3,0-0.5,0.2-0.7,0.5c-0.2,0.3-0.2,0.8-0.2,1.3V65h1.4v0.8h-1.4v5.5l0.8,0.2
		V72h-3.7v-0.5l0.8-0.2V65.8z"/>
	<path d="M35.2,71.3l0.8,0.2V72h-3.7v-0.5l0.8-0.2v-5.6l-0.7-0.2V65h2.9V71.3z M32.9,62.6c0-0.3,0.1-0.6,0.3-0.8
		c0.2-0.2,0.5-0.3,0.8-0.3c0.3,0,0.6,0.1,0.8,0.3c0.2,0.2,0.3,0.5,0.3,0.8c0,0.3-0.1,0.6-0.3,0.8c-0.2,0.2-0.5,0.3-0.8,0.3
		c-0.3,0-0.6-0.1-0.8-0.3S32.9,62.9,32.9,62.6z"/>
	<path d="M39.4,64.5c0,0.3,0,0.7,0,1.2l0.5-0.3c0.7-0.4,1.3-0.5,1.9-0.5c1.3,0,1.9,0.7,1.9,2.1v4.4l0.7,0.2V72h-3.5v-0.5l0.6-0.2
		v-4.1c0-0.4-0.1-0.7-0.3-1c-0.2-0.2-0.4-0.3-0.8-0.3c-0.4,0-0.8,0.1-1.1,0.3v5.2l0.6,0.2V72h-3.5v-0.5l0.7-0.2v-9.2L36.5,62v-0.5
		h2.9V64.5z"/>
	<path d="M53.6,71.4l-0.5,0.3c-0.7,0.4-1.3,0.5-1.9,0.5c-1.3,0-1.9-0.7-1.9-2.1v-4.4l-0.7-0.2V65h2.8v4.8c0,0.4,0.1,0.7,0.3,1
		c0.2,0.2,0.4,0.3,0.8,0.3c0.4,0,0.8-0.1,1.1-0.3v-5.2L53,65.5V65h2.8v6.3l0.7,0.2V72h-2.7L53.6,71.4z"/>
	<path d="M60.1,65.6l0.5-0.3c0.7-0.4,1.3-0.5,1.9-0.5c1.3,0,1.9,0.7,1.9,2.1v4.4l0.7,0.2V72h-3.5v-0.5l0.6-0.2v-4.1
		c0-0.4-0.1-0.7-0.3-1c-0.2-0.2-0.4-0.3-0.8-0.3c-0.4,0-0.8,0.1-1.1,0.3v5.2l0.6,0.2V72h-3.5v-0.5l0.7-0.2v-5.6l-0.7-0.2V65H60
		L60.1,65.6z"/>
	<path d="M68.5,72.1c-0.7,0-1.2-0.2-1.5-0.5c-0.4-0.3-0.5-0.7-0.5-1.3v-4.6h-0.9v-0.5l1.1-0.3l0.9-1.6h1.1V65h1.5v0.8h-1.5v4.5
		c0,0.3,0.1,0.6,0.2,0.7c0.1,0.2,0.3,0.2,0.5,0.2c0.3,0,0.6,0,1-0.1v0.6c-0.1,0.1-0.4,0.2-0.8,0.3S68.8,72.1,68.5,72.1z"/>
	<path d="M75.6,71.4l-0.5,0.3c-0.7,0.4-1.3,0.5-1.9,0.5c-1.3,0-1.9-0.7-1.9-2.1v-4.4l-0.7-0.2V65h2.8v4.8c0,0.4,0.1,0.7,0.3,1
		c0.2,0.2,0.4,0.3,0.8,0.3c0.4,0,0.8-0.1,1.1-0.3v-5.2l-0.6-0.2V65h2.8v6.3l0.7,0.2V72h-2.7L75.6,71.4z"/>
	<path d="M82,68.7l2.7-3L84,65.5V65h2.7v0.5l-0.8,0.2l-1.7,1.8l2.4,3.9l0.6,0.2V72h-3.4v-0.5l0.4-0.2l-1.4-2.4L82,69.5v1.8l0.7,0.2
		V72h-3.5v-0.5l0.7-0.2v-9.2L79.2,62v-0.5H82V68.7z"/>
	<path d="M95.2,71.3l1.3,0.2V72h-4.9v-0.5l1.3-0.2v-8.5l-1.3-0.2v-0.5h4.9v0.5l-1.3,0.2V71.3z"/>
	<path d="M102.5,69.8c0,0.8-0.2,1.4-0.7,1.8c-0.5,0.4-1.2,0.6-2.1,0.6c-0.4,0-0.8,0-1.2-0.1c-0.5-0.1-0.8-0.2-1-0.3v-1.9h0.5l0.3,1
		c0.2,0.2,0.4,0.3,0.7,0.4s0.6,0.2,0.9,0.2c0.4,0,0.8-0.1,1-0.3s0.3-0.4,0.3-0.7c0-0.3-0.1-0.5-0.3-0.7c-0.2-0.2-0.6-0.4-1.3-0.6
		c-0.7-0.2-1.2-0.5-1.5-0.9c-0.3-0.4-0.4-0.9-0.4-1.4c0-0.6,0.2-1.1,0.7-1.5c0.5-0.4,1.1-0.6,1.8-0.6c0.5,0,1.2,0.1,2.1,0.2v1.8
		h-0.5l-0.2-0.8c-0.1-0.1-0.3-0.3-0.6-0.4c-0.3-0.1-0.5-0.1-0.7-0.1c-0.4,0-0.6,0.1-0.8,0.2c-0.2,0.1-0.3,0.3-0.3,0.6
		c0,0.3,0.1,0.5,0.3,0.6c0.2,0.2,0.7,0.4,1.3,0.5c0.7,0.2,1.2,0.5,1.5,0.9C102.3,68.8,102.5,69.2,102.5,69.8z"/>
	<path d="M106,71.3l0.8,0.2V72h-3.7v-0.5l0.8-0.2v-9.2l-0.7-0.2v-0.5h2.9V71.3z"/>
	<path d="M111.1,64.9c1.7,0,2.6,0.6,2.6,1.9v4.5l0.7,0.2V72h-2.6l-0.2-0.5c-0.4,0.3-0.7,0.4-1,0.5c-0.3,0.1-0.6,0.1-0.9,0.1
		c-1.4,0-2.2-0.7-2.2-2.1c0-0.5,0.1-0.9,0.3-1.3c0.2-0.3,0.5-0.5,0.9-0.7c0.4-0.2,1-0.2,1.9-0.3l0.9,0v-1c0-0.8-0.3-1.3-1-1.3
		c-0.4,0-0.9,0.1-1.4,0.4l-0.3,0.9h-0.5v-1.7c0.7-0.1,1.3-0.2,1.6-0.2C110.4,64.9,110.8,64.9,111.1,64.9z M111.6,68.5l-0.6,0
		c-0.5,0-0.8,0.1-1,0.4s-0.3,0.6-0.3,1.1c0,0.4,0.1,0.7,0.2,0.9c0.1,0.2,0.3,0.3,0.6,0.3c0.3,0,0.7-0.1,1.1-0.3V68.5z"/>
	<path d="M117.9,65.6l0.5-0.3c0.7-0.4,1.3-0.5,1.9-0.5c0.8,0,1.4,0.3,1.7,0.9c1-0.6,1.9-0.9,2.6-0.9c1.3,0,1.9,0.7,1.9,2.1v4.4
		l0.7,0.2V72h-3.5v-0.5l0.6-0.2v-4.1c0-0.4-0.1-0.7-0.2-1c-0.2-0.2-0.4-0.3-0.7-0.3c-0.4,0-0.8,0.1-1.2,0.3c0,0.2,0.1,0.4,0.1,0.7
		v4.4l0.7,0.2V72h-3.5v-0.5l0.6-0.2v-4.1c0-0.4-0.1-0.7-0.2-1c-0.2-0.2-0.4-0.3-0.7-0.3s-0.7,0.1-1.1,0.3v5.2l0.6,0.2V72h-3.5v-0.5
		l0.7-0.2v-5.6l-0.7-0.2V65h2.7L117.9,65.6z"/>
	<path d="M136.5,71.6c-0.3,0.2-0.5,0.3-0.6,0.4s-0.3,0.1-0.5,0.1c-0.2,0-0.4,0.1-0.6,0.1c-1,0-1.8-0.3-2.3-0.9
		c-0.5-0.6-0.8-1.5-0.8-2.7c0-1.2,0.3-2.1,0.8-2.8c0.5-0.6,1.3-0.9,2.4-0.9c0.5,0,1.1,0.1,1.6,0.2c0-0.2,0-0.5,0-1.1v-1.8l-0.7-0.2
		v-0.5h2.9v9.9l0.8,0.2V72h-2.7L136.5,71.6z M133.9,68.5c0,0.9,0.1,1.6,0.3,2.1s0.6,0.7,1,0.7c0.4,0,0.8-0.1,1.2-0.3v-5.3
		c-0.4-0.1-0.8-0.2-1.2-0.2c-0.4,0-0.8,0.2-1,0.7C134,66.8,133.9,67.5,133.9,68.5z"/>
	<path d="M143.6,64.9c1.7,0,2.6,0.6,2.6,1.9v4.5l0.7,0.2V72h-2.6l-0.2-0.5c-0.4,0.3-0.7,0.4-1,0.5s-0.6,0.1-0.9,0.1
		c-1.4,0-2.2-0.7-2.2-2.1c0-0.5,0.1-0.9,0.3-1.3c0.2-0.3,0.5-0.5,0.9-0.7c0.4-0.2,1-0.2,1.9-0.3l0.9,0v-1c0-0.8-0.3-1.3-1-1.3
		c-0.4,0-0.9,0.1-1.4,0.4l-0.3,0.9h-0.5v-1.7c0.7-0.1,1.3-0.2,1.6-0.2C142.9,64.9,143.2,64.9,143.6,64.9z M144.1,68.5l-0.6,0
		c-0.5,0-0.8,0.1-1,0.4s-0.3,0.6-0.3,1.1c0,0.4,0.1,0.7,0.2,0.9c0.1,0.2,0.3,0.3,0.6,0.3c0.3,0,0.7-0.1,1.1-0.3V68.5z"/>
	<path d="M150.4,65.6l0.5-0.3c0.7-0.4,1.3-0.5,1.9-0.5c1.3,0,1.9,0.7,1.9,2.1v4.4l0.7,0.2V72h-3.5v-0.5l0.6-0.2v-4.1
		c0-0.4-0.1-0.7-0.3-1c-0.2-0.2-0.4-0.3-0.8-0.3c-0.4,0-0.8,0.1-1.1,0.3v5.2l0.6,0.2V72h-3.5v-0.5l0.7-0.2v-5.6l-0.7-0.2V65h2.7
		L150.4,65.6z"/>
	<path d="M164.4,62.1c1.8,0,3.1,0.4,4,1.2c0.9,0.8,1.3,2,1.3,3.7c0,1.7-0.4,3-1.2,3.8c-0.8,0.8-2,1.2-3.7,1.2l-3.3,0h-1.7v-0.5
		l1.3-0.2v-8.5l-1.3-0.2v-0.5H164.4z M167.2,67c0-1.4-0.3-2.5-0.8-3.2c-0.5-0.7-1.4-1-2.6-1h-0.5v8.3c0.5,0,0.9,0.1,1.3,0.1
		c0.6,0,1.2-0.1,1.5-0.4c0.4-0.3,0.6-0.7,0.8-1.3C167.1,68.9,167.2,68.1,167.2,67z"/>
	<path d="M174.4,64.9c1.7,0,2.6,0.6,2.6,1.9v4.5l0.7,0.2V72h-2.6l-0.2-0.5c-0.4,0.3-0.7,0.4-1,0.5s-0.6,0.1-0.9,0.1
		c-1.4,0-2.2-0.7-2.2-2.1c0-0.5,0.1-0.9,0.3-1.3c0.2-0.3,0.5-0.5,0.9-0.7c0.4-0.2,1-0.2,1.9-0.3l0.9,0v-1c0-0.8-0.3-1.3-1-1.3
		c-0.4,0-0.9,0.1-1.4,0.4l-0.3,0.9h-0.5v-1.7c0.7-0.1,1.3-0.2,1.6-0.2C173.7,64.9,174,64.9,174.4,64.9z M174.9,68.5l-0.6,0
		c-0.5,0-0.8,0.1-1,0.4S173,69.5,173,70c0,0.4,0.1,0.7,0.2,0.9c0.1,0.2,0.3,0.3,0.6,0.3c0.3,0,0.7-0.1,1.1-0.3V68.5z"/>
	<path d="M181.2,68.7l2.7-3l-0.7-0.2V65h2.7v0.5l-0.8,0.2l-1.7,1.8l2.4,3.9l0.6,0.2V72H183v-0.5l0.4-0.2l-1.4-2.4l-0.9,0.6v1.8
		l0.7,0.2V72h-3.5v-0.5l0.7-0.2v-9.2l-0.7-0.2v-0.5h2.9V68.7z"/>
	<path d="M192.9,65.7l1.6,4l1.3-4l-0.8-0.2V65h2.3v0.5l-0.5,0.1l-2.3,6.5h-0.9l-1.6-3.9l-1.6,3.9h-0.9l-2.5-6.5l-0.5-0.2V65h3.4v0.5
		l-0.8,0.2l1.5,4l1.6-4H192.9z"/>
	<path d="M201.4,64.9c1.7,0,2.6,0.6,2.6,1.9v4.5l0.7,0.2V72h-2.6l-0.2-0.5c-0.4,0.3-0.7,0.4-1,0.5s-0.6,0.1-0.9,0.1
		c-1.4,0-2.2-0.7-2.2-2.1c0-0.5,0.1-0.9,0.3-1.3c0.2-0.3,0.5-0.5,0.9-0.7c0.4-0.2,1-0.2,1.9-0.3l0.9,0v-1c0-0.8-0.3-1.3-1-1.3
		c-0.4,0-0.9,0.1-1.4,0.4l-0.3,0.9h-0.5v-1.7c0.7-0.1,1.3-0.2,1.6-0.2C200.7,64.9,201.1,64.9,201.4,64.9z M201.9,68.5l-0.6,0
		c-0.5,0-0.8,0.1-1,0.4S200,69.5,200,70c0,0.4,0.1,0.7,0.2,0.9c0.1,0.2,0.3,0.3,0.6,0.3c0.3,0,0.7-0.1,1.1-0.3V68.5z"/>
	<path d="M208.2,64.5c0,0.3,0,0.7,0,1.2l0.5-0.3c0.7-0.4,1.3-0.5,1.9-0.5c1.3,0,1.9,0.7,1.9,2.1v4.4l0.7,0.2V72h-3.5v-0.5l0.6-0.2
		v-4.1c0-0.4-0.1-0.7-0.3-1c-0.2-0.2-0.4-0.3-0.8-0.3c-0.4,0-0.8,0.1-1.1,0.3v5.2l0.6,0.2V72h-3.5v-0.5l0.7-0.2v-9.2l-0.7-0.2v-0.5
		h2.9V64.5z"/>
</g>
</svg>
